<mxfile host="app.diagrams.net" agent="Mozilla/5.0 (Windows NT 10.0; Win64; x64) AppleWebKit/537.36 (KHTML, like Gecko) Chrome/129.0.0.0 Safari/537.36" version="24.7.16">
  <diagram name="Page-1" id="9UVsAq16OEgGH-QT-e9c">
    <mxGraphModel dx="2037" dy="1886" grid="1" gridSize="10" guides="1" tooltips="1" connect="1" arrows="1" fold="1" page="1" pageScale="1" pageWidth="850" pageHeight="1100" math="0" shadow="0">
      <root>
        <mxCell id="0" />
        <mxCell id="1" parent="0" />
        <mxCell id="JgWOOsWS1i2mkN9p8RnF-62" value="" style="group" parent="1" vertex="1" connectable="0">
          <mxGeometry x="250" y="-30" width="700" height="330" as="geometry" />
        </mxCell>
        <mxCell id="JgWOOsWS1i2mkN9p8RnF-55" value="" style="rounded=0;whiteSpace=wrap;html=1;" parent="JgWOOsWS1i2mkN9p8RnF-62" vertex="1">
          <mxGeometry width="700" height="330" as="geometry" />
        </mxCell>
        <mxCell id="JgWOOsWS1i2mkN9p8RnF-60" value="Study Group System" style="text;html=1;align=center;verticalAlign=middle;resizable=0;points=[];autosize=1;strokeColor=none;fillColor=none;fontStyle=1" parent="JgWOOsWS1i2mkN9p8RnF-62" vertex="1">
          <mxGeometry x="285" width="130" height="30" as="geometry" />
        </mxCell>
        <mxCell id="JgWOOsWS1i2mkN9p8RnF-3" value="User" style="shape=umlActor;html=1;verticalLabelPosition=bottom;verticalAlign=top;align=center;" parent="1" vertex="1">
          <mxGeometry x="150" y="115" width="30" height="60" as="geometry" />
        </mxCell>
        <mxCell id="JgWOOsWS1i2mkN9p8RnF-22" value="" style="edgeStyle=none;html=1;endArrow=none;verticalAlign=bottom;rounded=0;" parent="1" source="JgWOOsWS1i2mkN9p8RnF-3" target="JgWOOsWS1i2mkN9p8RnF-20" edge="1">
          <mxGeometry width="160" relative="1" as="geometry">
            <mxPoint x="1405" y="315" as="sourcePoint" />
            <mxPoint x="1565" y="315" as="targetPoint" />
          </mxGeometry>
        </mxCell>
        <mxCell id="JgWOOsWS1i2mkN9p8RnF-32" value="" style="edgeStyle=none;html=1;endArrow=none;verticalAlign=bottom;rounded=0;" parent="1" source="JgWOOsWS1i2mkN9p8RnF-3" target="JgWOOsWS1i2mkN9p8RnF-28" edge="1">
          <mxGeometry width="160" relative="1" as="geometry">
            <mxPoint x="1285" y="265" as="sourcePoint" />
            <mxPoint x="1445" y="265" as="targetPoint" />
          </mxGeometry>
        </mxCell>
        <mxCell id="JgWOOsWS1i2mkN9p8RnF-57" value="" style="group" parent="1" vertex="1" connectable="0">
          <mxGeometry x="300" y="45" width="350" height="180" as="geometry" />
        </mxCell>
        <mxCell id="JgWOOsWS1i2mkN9p8RnF-20" value="Search for study group" style="ellipse;whiteSpace=wrap;html=1;" parent="JgWOOsWS1i2mkN9p8RnF-57" vertex="1">
          <mxGeometry width="140" height="70" as="geometry" />
        </mxCell>
        <mxCell id="JgWOOsWS1i2mkN9p8RnF-21" value="Join study group" style="ellipse;whiteSpace=wrap;html=1;" parent="JgWOOsWS1i2mkN9p8RnF-57" vertex="1">
          <mxGeometry x="240" width="140" height="70" as="geometry" />
        </mxCell>
        <mxCell id="JgWOOsWS1i2mkN9p8RnF-23" value="&amp;lt;&amp;lt;extend&amp;gt;&amp;gt;" style="edgeStyle=none;html=1;startArrow=open;endArrow=none;startSize=12;verticalAlign=bottom;dashed=1;labelBackgroundColor=none;rounded=0;" parent="JgWOOsWS1i2mkN9p8RnF-57" source="JgWOOsWS1i2mkN9p8RnF-20" target="JgWOOsWS1i2mkN9p8RnF-21" edge="1">
          <mxGeometry width="160" relative="1" as="geometry">
            <mxPoint x="150" y="-60" as="sourcePoint" />
            <mxPoint x="310" y="-60" as="targetPoint" />
          </mxGeometry>
        </mxCell>
        <mxCell id="JgWOOsWS1i2mkN9p8RnF-28" value="Receive study group invite" style="ellipse;whiteSpace=wrap;html=1;" parent="JgWOOsWS1i2mkN9p8RnF-57" vertex="1">
          <mxGeometry y="110" width="140" height="70" as="geometry" />
        </mxCell>
        <mxCell id="JgWOOsWS1i2mkN9p8RnF-29" value="Decline study group invite" style="ellipse;whiteSpace=wrap;html=1;" parent="JgWOOsWS1i2mkN9p8RnF-57" vertex="1">
          <mxGeometry x="240" y="110" width="140" height="70" as="geometry" />
        </mxCell>
        <mxCell id="JgWOOsWS1i2mkN9p8RnF-30" value="&amp;lt;&amp;lt;extend&amp;gt;&amp;gt;" style="edgeStyle=none;html=1;startArrow=open;endArrow=none;startSize=12;verticalAlign=bottom;dashed=1;labelBackgroundColor=none;rounded=0;" parent="JgWOOsWS1i2mkN9p8RnF-57" source="JgWOOsWS1i2mkN9p8RnF-28" target="JgWOOsWS1i2mkN9p8RnF-21" edge="1">
          <mxGeometry x="-0.0931" y="9" width="160" relative="1" as="geometry">
            <mxPoint x="360" y="80" as="sourcePoint" />
            <mxPoint x="520" y="80" as="targetPoint" />
            <mxPoint as="offset" />
          </mxGeometry>
        </mxCell>
        <mxCell id="JgWOOsWS1i2mkN9p8RnF-31" value="&amp;lt;&amp;lt;extend&amp;gt;&amp;gt;" style="edgeStyle=none;html=1;startArrow=open;endArrow=none;startSize=12;verticalAlign=bottom;dashed=1;labelBackgroundColor=none;rounded=0;" parent="JgWOOsWS1i2mkN9p8RnF-57" source="JgWOOsWS1i2mkN9p8RnF-28" target="JgWOOsWS1i2mkN9p8RnF-29" edge="1">
          <mxGeometry width="160" relative="1" as="geometry">
            <mxPoint x="150" y="155" as="sourcePoint" />
            <mxPoint x="290" y="35" as="targetPoint" />
          </mxGeometry>
        </mxCell>
      </root>
    </mxGraphModel>
  </diagram>
</mxfile>
